# xmcd CD database file
#
# Track frame offsets:
#	150
#	14122
#	28004
#	43821
#	60012
#	71231
#	88125
#	103642
#	120793
#	137955
#	150675
#	166440
#	178124
#
# Disc length: 2682 seconds
#
# Revision: 0
# Processed by: cddbd v1.5.2PL0 Copyright (c) Steve Scherf et al.
# Submitted via: CDex 1.70beta2
#
DISCID=b00a780d
DTITLE=Norbert Schneider - Tailormade
DYEAR=2010
DGENRE=Jazz
TTITLE0=Boom Box
TTITLE1=Take It Easy (Radio Edit)
TTITLE2=Fancy Being You
TTITLE3=It's Alright Tonight
TTITLE4=Jelly Is Shakin'
TTITLE5=Party Machine
TTITLE6=Rock On
TTITLE7=Single Blow
TTITLE8=Hooked On You (Radio Edit)
TTITLE9=Ain't That A Shame
TTITLE10=Train
TTITLE11=Keep On Running
TTITLE12=I Need More Time
EXTD=YEAR: 2010
EXTT0=
EXTT1=
EXTT2=
EXTT3=
EXTT4=
EXTT5=
EXTT6=
EXTT7=
EXTT8=
EXTT9=
EXTT10=
EXTT11=
EXTT12=
PLAYORDER=
